<svg width="150" height="31" viewBox="0 0 150 31" fill="none" xmlns="http://www.w3.org/2000/svg">
<g id="Make-Logo-RGB 1" clip-path="url(#clip0_265_3188)">
<path id="Vector" d="M51.3721 16.1663V29.6978C51.3721 30.137 51.0152 30.4944 50.5767 30.4944H44.739C44.2988 30.4944 43.9436 30.137 43.9436 29.6978V8.32992C43.9436 7.89079 44.3005 7.53335 44.739 7.53335H50.5767C51.0152 7.53335 51.3721 7.89079 51.3721 8.32992V10.0133C52.8387 8.17674 54.9019 7.02783 57.791 7.02783C60.4966 7.02783 62.8351 8.13078 64.2559 10.1971C65.9978 8.13078 68.474 7.02783 71.5008 7.02783C76.6366 7.02783 80.1664 10.0592 80.1664 15.8446V29.6978C80.1664 30.137 79.8095 30.4944 79.3711 30.4944H73.5333C73.0932 30.4944 72.738 30.137 72.738 29.6978V17.4071C72.738 14.8812 71.3172 13.6421 69.39 13.6421C67.7857 13.6421 66.5009 14.6532 65.7667 16.168V29.6996C65.7667 30.1387 65.4098 30.4961 64.9713 30.4961H59.1336C58.6934 30.4961 58.3382 30.1387 58.3382 29.6996V17.4088C58.3382 14.8829 56.9175 13.6438 54.9903 13.6438C53.3401 13.6438 52.1011 14.6549 51.367 16.1697" fill="#0E0E0E"/>
<path id="Vector_2" d="M89.93 30.954C85.6201 30.954 81.9968 28.1064 81.9968 23.698C81.9968 19.6573 84.6565 17.773 89.6088 16.488L95.9377 14.8353C95.7542 13.3204 94.5611 12.5851 92.6356 12.5851C90.9293 12.5851 89.7023 13.2387 89.1364 14.5459C88.9783 14.9101 88.5993 15.1246 88.2118 15.0327L83.1967 13.8378C82.7344 13.7272 82.4642 13.2336 82.629 12.7877C84.0685 8.88648 88.0691 6.84229 92.9092 6.84229C99.42 6.84229 103.181 9.91965 103.181 15.3374V29.6961C103.181 30.137 102.824 30.4927 102.386 30.4927H96.8503C96.4187 30.4927 96.0652 30.1472 96.055 29.7148L96.0278 28.5183L95.9819 28.5642C94.1023 30.171 92.2685 30.9523 89.9283 30.9523M91.808 25.2111C92.7716 25.2111 93.504 24.9354 94.6053 24.292L95.8884 23.5108L95.9343 19.79L92.6322 20.7091C90.3855 21.3525 89.376 21.904 89.376 23.1891C89.376 24.612 90.6132 25.2094 91.8063 25.2094" fill="#0E0E0E"/>
<path id="Vector_3" d="M115.042 19.6573L112.795 21.7237V29.6979C112.795 30.1387 112.438 30.4945 112 30.4945H106.3C105.859 30.4945 105.504 30.137 105.504 29.6979V0.796574C105.504 0.357437 105.861 0 106.3 0H112C112.438 0 112.795 0.357437 112.795 0.796574V13.8703L119.445 7.74277C119.591 7.6083 119.785 7.53171 119.984 7.53171H127.021C127.749 7.53171 128.094 8.427 127.558 8.9172L120.73 15.1553L128.517 29.3132C128.809 29.8443 128.425 30.4945 127.82 30.4945H121.167C120.871 30.4945 120.597 30.3294 120.461 30.0656L115.043 19.6556L115.042 19.6573Z" fill="#0E0E0E"/>
<path id="Vector_4" d="M139.23 31.0001C132.857 31.0001 127.033 27.0053 127.033 18.9221C127.033 11.2985 132.628 6.89014 138.772 6.89014C144.915 6.89014 149.777 11.3445 149.959 18.3707C149.98 19.1128 149.992 19.6302 149.998 19.9979C150.005 20.4438 149.647 20.8046 149.203 20.8046H134.37C134.599 23.5603 136.8 25.305 139.597 25.305C141.588 25.305 143.219 24.476 144.363 22.9782C144.616 22.6463 145.083 22.5697 145.43 22.8029L149.135 25.2879C149.506 25.5364 149.597 26.0403 149.347 26.4096C147.362 29.3355 144.089 31.0001 139.232 31.0001M134.509 16.3043H142.534C142.488 13.6865 140.563 12.5393 138.546 12.5393C136.666 12.5393 134.74 13.6423 134.511 16.3043" fill="#0E0E0E"/>
<g id="Clip path group">
<mask id="mask0_265_3188" style="mask-type:luminance" maskUnits="userSpaceOnUse" x="25" y="7" width="9" height="24">
<g id="clippath">
<path id="Vector_5" d="M26.5187 7.54688H32.2766C32.7151 7.54688 33.072 7.90431 33.072 8.34345V29.6314C33.072 30.0705 32.7151 30.4279 32.2766 30.4279H26.5187C26.0803 30.4279 25.7234 30.0705 25.7234 29.6314V8.34345C25.7234 7.90431 26.0803 7.54688 26.5187 7.54688Z" fill="white"/>
</g>
</mask>
<g mask="url(#mask0_265_3188)">
<g id="Group">
<path id="Vector_6" d="M32.1946 5.15656L18.3093 10.2842L26.6046 32.816L40.4899 27.6884L32.1946 5.15656Z" fill="url(#paint0_linear_265_3188)"/>
</g>
</g>
</g>
<g id="Clip path group_2">
<mask id="mask1_265_3188" style="mask-type:luminance" maskUnits="userSpaceOnUse" x="0" y="7" width="17" height="24">
<g id="clippath-1">
<path id="Vector_7" d="M9.6294 7.82781L0.0850878 26.8486C-0.112052 27.2417 0.0459997 27.72 0.438581 27.9175L5.58292 30.5063C5.9755 30.7038 6.45306 30.5455 6.6502 30.1523L16.1945 11.1315C16.3917 10.7384 16.2336 10.2601 15.841 10.0626L10.6967 7.47378C10.5811 7.41591 10.4604 7.38867 10.3398 7.38867C10.0492 7.38867 9.76876 7.54867 9.6294 7.82781Z" fill="white"/>
</g>
</mask>
<g mask="url(#mask1_265_3188)">
<g id="Group_2">
<path id="Vector_8" d="M13.793 1.36937L-8.59375 11.0625L2.48534 36.7284L24.8721 27.0353L13.793 1.36937Z" fill="url(#paint1_linear_265_3188)"/>
</g>
</g>
</g>
<g id="Clip path group_3">
<mask id="mask2_265_3188" style="mask-type:luminance" maskUnits="userSpaceOnUse" x="13" y="7" width="12" height="24">
<g id="clippath-2">
<path id="Vector_9" d="M17.6577 7.89608L13.5738 28.6291C13.4889 29.0598 13.7676 29.4768 14.1976 29.5636L19.8415 30.704C20.2732 30.7908 20.6947 30.5099 20.7797 30.0776L24.8635 9.34455C24.9485 8.91392 24.6698 8.49691 24.2398 8.41011L18.5958 7.26971C18.5431 7.2595 18.4905 7.25439 18.4378 7.25439C18.0656 7.25439 17.7325 7.51652 17.6577 7.89608Z" fill="white"/>
</g>
</mask>
<g mask="url(#mask2_265_3188)">
<g id="Group_3">
<path id="Vector_10" d="M23.5805 3.53418L5.86963 10.064L14.8571 34.5153L32.5679 27.9855L23.5805 3.53418Z" fill="url(#paint2_linear_265_3188)"/>
</g>
</g>
</g>
</g>
<defs>
<linearGradient id="paint0_linear_265_3188" x1="18.4411" y1="22.6717" x2="33.9856" y2="16.9489" gradientUnits="userSpaceOnUse">
<stop stop-color="#B02DE9"/>
<stop offset="0.02" stop-color="#B02DE9"/>
<stop offset="0.8" stop-color="#6D00CC"/>
<stop offset="1" stop-color="#6D00CC"/>
</linearGradient>
<linearGradient id="paint1_linear_265_3188" x1="4.91894" y1="20.2205" x2="21.6309" y2="13.0066" gradientUnits="userSpaceOnUse">
<stop stop-color="#FF00FF"/>
<stop offset="0.17" stop-color="#E90CF9"/>
<stop offset="0.54" stop-color="#C023ED"/>
<stop offset="0.73" stop-color="#B02DE9"/>
<stop offset="1" stop-color="#B02DE9"/>
</linearGradient>
<linearGradient id="paint2_linear_265_3188" x1="1.19289" y1="25.8444" x2="35.4468" y2="13.2539" gradientUnits="userSpaceOnUse">
<stop stop-color="#FF00FF"/>
<stop offset="0.02" stop-color="#FF00FF"/>
<stop offset="0.09" stop-color="#E90CF9"/>
<stop offset="0.23" stop-color="#C023ED"/>
<stop offset="0.3" stop-color="#B02DE9"/>
<stop offset="0.42" stop-color="#A42BE3"/>
<stop offset="0.63" stop-color="#8626D5"/>
<stop offset="0.85" stop-color="#6021C3"/>
<stop offset="1" stop-color="#6021C3"/>
</linearGradient>
<clipPath id="clip0_265_3188">
<rect width="150" height="31" fill="white"/>
</clipPath>
</defs>
</svg>
