<svg width="154" height="31" viewBox="0 0 154 31" fill="none" xmlns="http://www.w3.org/2000/svg">
<g id="Frame">
<path id="Vector" fill-rule="evenodd" clip-rule="evenodd" d="M16.5981 15.5C16.5981 17.1529 16.4215 18.5901 16.0697 19.809C15.7165 21.0279 15.2248 22.041 14.5933 22.847C13.9617 23.653 13.1946 24.2519 12.2932 24.645C11.3918 25.0381 10.3915 25.234 9.29369 25.234C8.49057 25.2401 7.69043 25.1358 6.91587 24.924C6.18119 24.7169 5.5115 24.3139 4.91105 23.715L4.8178 23.746L4.87996 26.257V29.698H0V6.262L3.388 6.045L4.32048 7.688C4.99261 7.08315 5.7729 6.60991 6.62059 6.293C7.5147 5.95807 8.46294 5.78994 9.41802 5.797C10.578 5.797 11.6037 5.9675 12.4952 6.3085C13.3853 6.6495 14.1369 7.19623 14.7487 7.9515C15.3604 8.70536 15.821 9.703 16.1319 10.943C16.4427 12.183 16.5981 13.702 16.5981 15.5ZM11.5938 15.469C11.5938 14.3939 11.526 13.5061 11.3918 12.803C11.2575 12.0999 11.0499 11.5475 10.7701 11.1445C10.5082 10.7551 10.1263 10.4614 9.68222 10.3075C9.17568 10.1431 8.64512 10.0645 8.11255 10.075C7.46294 10.0628 6.81931 10.2008 6.23205 10.478C5.68246 10.7457 5.23176 11.1191 4.87996 11.594V19.654C5.1696 20.1091 5.57367 20.491 6.09218 20.801C6.6107 21.111 7.25213 21.266 8.0193 21.266C8.51604 21.2728 9.01023 21.1941 9.48018 21.0335C9.91534 20.8785 10.2883 20.5896 10.5992 20.1655C10.91 19.7428 11.153 19.1524 11.3296 18.3985C11.5062 17.6446 11.5938 16.6681 11.5938 15.469ZM18.8982 24.924V6.262L23.8403 6.045V24.924H18.8982ZM24.1201 2.077C24.1201 2.759 23.9025 3.2705 23.4673 3.6115C23.0322 3.9525 22.3371 4.123 21.3848 4.123C20.4523 4.123 19.7586 3.97364 19.3023 3.6735C18.8459 3.37336 18.6185 2.84214 18.6185 2.077C18.6185 0.691864 19.541 0 21.3848 0C22.3385 0 23.0322 0.176136 23.4673 0.527C23.9025 0.879273 24.1201 1.395 24.1201 2.077ZM43.6088 15.5C43.6088 17.1529 43.4322 18.5901 43.0804 19.809C42.7272 21.0279 42.2356 22.041 41.604 22.847C40.9725 23.653 40.2053 24.2519 39.3039 24.645C38.4025 25.0381 37.4022 25.234 36.3044 25.234C35.5013 25.2401 34.7012 25.1358 33.9266 24.924C33.1919 24.7169 32.5223 24.3139 31.9218 23.715L31.8286 23.746L31.8907 26.257V29.698H27.0108V6.262L30.3988 6.045L31.3312 7.688C32.0034 7.08315 32.7837 6.60991 33.6313 6.293C34.5255 5.95807 35.4737 5.78994 36.4288 5.797C37.5887 5.797 38.6144 5.9675 39.5059 6.3085C40.396 6.6495 41.1477 7.19623 41.7594 7.9515C42.3712 8.70536 42.8318 9.703 43.1426 10.943C43.4534 12.183 43.6088 13.702 43.6088 15.5ZM38.6045 15.469C38.6045 14.3939 38.5367 13.5061 38.4025 12.803C38.2683 12.0999 38.0606 11.5475 37.7809 11.1445C37.5189 10.7551 37.1371 10.4614 36.693 10.3075C36.1864 10.1431 35.6559 10.0645 35.1233 10.075C34.4737 10.0628 33.8301 10.2008 33.2428 10.478C32.6932 10.7457 32.2425 11.1191 31.8907 11.594V19.654C32.1804 20.1091 32.5844 20.491 33.1029 20.801C33.6215 21.111 34.2629 21.266 35.0301 21.266C35.5268 21.2728 36.021 21.1941 36.4909 21.0335C36.9261 20.8785 37.2991 20.5896 37.6099 20.1655C37.9207 19.7428 38.1637 19.1524 38.3403 18.3985C38.517 17.6446 38.6045 16.6681 38.6045 15.469ZM53.8972 25.265C50.6434 25.265 48.2656 24.4224 46.7637 22.7385C45.2619 21.0546 44.5102 18.569 44.5102 15.283C44.5102 12.2859 45.1842 9.95664 46.5306 8.2925C47.877 6.62977 49.9709 5.797 52.8093 5.797C55.2125 5.797 57.1086 6.51 58.4974 7.936C59.8862 9.362 60.5799 11.563 60.5799 14.539C60.5799 14.8913 60.57 15.2717 60.5488 15.686C60.531 16.059 60.4999 16.4312 60.4556 16.802H49.4834C49.6078 18.3731 50.0684 19.4835 50.8666 20.1345C51.6649 20.7855 52.8715 21.111 54.4877 21.111C56.2284 21.111 57.9068 20.801 59.5231 20.181L60.0515 24.056C59.1622 24.4404 58.235 24.7313 57.2852 24.924C56.2284 25.1509 55.0995 25.265 53.8972 25.265ZM56.1662 13.609C56.1238 12.2239 55.813 11.2417 55.2337 10.664C54.6545 10.0863 53.8562 9.796 52.8404 9.796C51.6804 9.796 50.8412 10.0905 50.3227 10.6795C49.8042 11.2685 49.4933 12.245 49.3902 13.609H56.1662ZM74.2873 24.924L73.8211 23.312L73.7279 23.281C73.1684 23.9433 72.4747 24.4435 71.6453 24.7845C70.816 25.1255 69.8326 25.296 68.6925 25.296C66.2483 25.296 64.4342 24.4999 63.253 22.909C62.0719 21.3167 61.4813 18.8269 61.4813 15.438C61.4813 12.338 62.0719 9.951 63.253 8.277C64.4342 6.603 66.2271 5.766 68.6303 5.766C70.4331 5.766 71.966 6.33386 73.2305 7.471L73.2927 7.409L73.2305 4.929V0.806L78.0483 0.558V24.924H74.2873ZM73.2305 11.501C72.9409 11.0881 72.5213 10.7471 71.9717 10.478C71.4221 10.2103 70.7849 10.075 70.0601 10.075C69.3961 10.075 68.838 10.168 68.3817 10.354C67.9222 10.5428 67.5318 10.8674 67.2627 11.284C66.9731 11.718 66.7654 12.2915 66.641 13.0045C66.5167 13.7175 66.4545 14.601 66.4545 15.655C66.4545 16.7499 66.511 17.6644 66.6255 18.3985C66.7385 19.1312 66.9363 19.7216 67.2161 20.1655C67.4958 20.6094 67.8631 20.925 68.3195 21.111C68.7758 21.297 69.3452 21.39 70.029 21.39C70.9191 21.39 71.6199 21.2251 72.1271 20.894C72.6357 20.5629 73.0031 20.2021 73.2305 19.809V11.501ZM80.7525 24.924V6.262L84.6068 6.076L85.0419 9.207H85.1352C85.7356 8.06986 86.4774 7.223 87.3576 6.665C88.2346 6.10799 89.2551 5.8172 90.2949 5.828C90.7088 5.828 91.0931 5.85336 91.4449 5.9055C91.7981 5.95764 92.0976 6.02386 92.3463 6.107L92.0355 10.85C91.7227 10.7412 91.4 10.6633 91.0719 10.6175C90.7117 10.5653 90.3481 10.5394 89.984 10.54C88.7195 10.54 87.674 10.974 86.8447 11.842C86.0154 12.71 85.6014 13.9289 85.6014 15.5V24.924H80.7525ZM101.951 25.265C98.6971 25.265 96.3192 24.4224 94.8174 22.7385C93.3155 21.0546 92.5639 18.569 92.5639 15.283C92.5639 12.2859 93.2378 9.95664 94.5843 8.2925C95.9307 6.62977 98.0245 5.797 100.863 5.797C103.266 5.797 105.162 6.51 106.551 7.936C107.94 9.362 108.634 11.563 108.634 14.539C108.634 14.8913 108.624 15.2717 108.602 15.686C108.585 16.059 108.554 16.4312 108.509 16.802H97.5371C97.6614 18.3731 98.122 19.4835 98.9203 20.1345C99.7185 20.7855 100.925 21.111 102.541 21.111C104.282 21.111 105.96 20.801 107.577 20.181L108.105 24.056C107.216 24.4404 106.289 24.7313 105.339 24.924C104.282 25.1509 103.153 25.265 101.951 25.265ZM104.22 13.609C104.177 12.2239 103.867 11.2417 103.287 10.664C102.708 10.0863 101.91 9.796 100.894 9.796C99.7341 9.796 98.8948 10.0905 98.3763 10.6795C97.8578 11.2685 97.547 12.245 97.4439 13.609H104.22ZM120.694 23.126L120.6 23.095C120.021 23.777 119.295 24.304 118.425 24.676C117.554 25.048 116.581 25.234 115.503 25.234C113.721 25.234 112.301 24.7225 111.245 23.6995C110.188 22.6765 109.659 21.111 109.659 19.003C109.659 18.135 109.809 17.3403 110.11 16.616C110.411 15.8931 110.845 15.2774 111.415 14.7715C111.985 14.2642 112.684 13.8669 113.514 13.578C114.343 13.2891 115.295 13.144 116.373 13.144C117.078 13.144 117.729 13.1905 118.331 13.2835C118.932 13.3765 119.481 13.5061 119.979 13.671V12.586C119.979 11.6349 119.71 10.9374 119.171 10.4935C118.632 10.0496 117.71 9.827 116.404 9.827C115.369 9.827 114.462 9.91014 113.684 10.075C112.907 10.2399 112.084 10.4977 111.213 10.85L110.809 7.006C111.763 6.59314 112.773 6.28314 113.84 6.076C114.972 5.86335 116.122 5.75954 117.275 5.766C118.663 5.766 119.833 5.91536 120.787 6.2155C121.741 6.51564 122.512 6.975 123.103 7.595C123.693 8.215 124.118 8.99986 124.377 9.951C124.635 10.9021 124.765 12.0181 124.765 13.299V24.924H121.067L120.694 23.126ZM119.979 16.864C119.649 16.7316 119.305 16.638 118.953 16.585C118.409 16.4953 117.857 16.4539 117.306 16.461C115.213 16.461 114.166 17.2881 114.166 18.941C114.166 19.871 114.415 20.5164 114.912 20.8785C115.41 21.2406 116.052 21.421 116.839 21.421C117.253 21.421 117.648 21.3646 118.021 21.2505C118.394 21.1378 118.726 20.9771 119.015 20.77C119.305 20.5629 119.538 20.3304 119.715 20.0725C119.891 19.8146 119.979 19.53 119.979 19.22V16.864ZM148.015 24.924V12.927C148.015 11.935 147.767 11.2065 147.269 10.7415C146.772 10.2765 146.078 10.044 145.187 10.044C144.379 10.044 143.716 10.2666 143.197 10.7105C142.679 11.1544 142.42 11.842 142.42 12.772V24.924H137.603V12.772C137.603 11.7997 137.36 11.1036 136.872 10.6795C136.385 10.2568 135.716 10.044 134.867 10.044C134.288 10.044 133.743 10.1736 133.235 10.4315C132.727 10.6894 132.328 11.036 132.039 11.47V24.924H127.19V6.262L130.671 6.014L131.448 7.781C132.102 7.16709 132.86 6.67377 133.686 6.324C134.491 5.97759 135.358 5.79828 136.235 5.797C138.576 5.797 140.233 6.634 141.208 8.308C141.851 7.44 142.622 6.8045 143.524 6.4015C144.459 5.99152 145.471 5.78542 146.492 5.797C147.425 5.797 148.279 5.94214 149.056 6.231C149.834 6.51986 150.502 6.9595 151.061 7.5485C151.621 8.1375 152.056 8.87164 152.367 9.7495C152.678 10.6274 152.833 11.656 152.833 12.834V24.924H148.015Z" fill="#0E0E0E"/>
</g>
</svg>
